<svg width="60" height="164" viewBox="0 0 186 164" fill="none" xmlns="http://www.w3.org/2000/svg">
<g clip-path="url(#clip0_318_10)">
<path d="M71.1916 53.5172C74.2867 63.8992 83.7992 70.2371 92.4581 67.6644C101.117 65.0917 105.636 54.5857 102.55 44.2021C99.4632 33.8186 89.9422 27.4822 81.2833 30.0548C72.6244 32.6275 68.1076 43.1323 71.1916 53.5172ZM75.4582 49.8449C77.6772 57.3141 84.5242 61.8688 90.7565 60.0256C96.7409 58.2381 99.9673 51.1918 98.2418 44.0186C98.348 44.3143 98.4469 44.6138 98.5362 44.9186C100.948 53.0301 97.4177 61.2332 90.6566 63.2425C83.8955 65.2518 76.4574 60.3068 74.053 52.2037C72.1642 45.846 73.9242 39.4336 78.0267 35.9902C75.0444 39.3048 73.8995 44.5927 75.4582 49.8449Z" fill="#D11C23"/>
<path d="M116.624 61.2807C109.534 78.9361 113.998 97.3545 126.599 102.4C139.2 107.446 155.148 97.2431 162.239 79.5878C169.329 61.9324 164.865 43.514 152.264 38.4683C139.663 33.4225 123.714 43.623 116.624 61.2807ZM125.293 60.3952C120.188 73.0838 123.404 86.339 132.459 89.9727C141.162 93.4683 152.096 86.8192 157.461 75.0266C157.279 75.5462 157.085 76.0663 156.882 76.5878C151.343 90.3781 138.883 98.3554 129.043 94.3951C119.204 90.4348 115.731 76.0597 121.26 62.2746C125.599 51.4689 134.192 44.2356 142.441 43.5105C135.614 45.1958 128.878 51.4698 125.293 60.3952Z" fill="#D11C23"/>
<path d="M23.5873 106.128C20.2773 122.408 36.0885 139.36 58.9187 144.013C81.749 148.665 102.925 139.212 106.24 122.941C109.556 106.67 93.7393 89.7086 70.9103 85.0585C48.0813 80.4084 26.8986 89.8497 23.5873 106.128ZM35.3618 99.4911C41.6565 91.5445 54.84 87.6334 68.81 90.4739C86.6352 94.1009 98.9879 107.345 96.4018 120.061C93.8157 132.776 77.2704 140.143 59.4452 136.516C58.7733 136.382 58.1142 136.225 57.4586 136.063C73.1265 138.52 87.2876 131.821 89.5765 120.571C91.9584 108.862 80.5822 96.6654 64.168 93.3275C52.6298 90.9785 41.6798 93.6396 35.3618 99.4911Z" fill="#D11C23"/>
</g>
<defs>
<clipPath id="clip0_318_10">
<rect width="155" height="102.441" fill="white" transform="translate(0 73.5128) rotate(-28.3122)"/>
</clipPath>
</defs>
</svg>
